<mxfile host="app.diagrams.net" agent="Mozilla/5.0 (Windows NT 10.0; Win64; x64; rv:136.0) Gecko/20100101 Firefox/136.0" version="26.1.1">
  <diagram name="Strona-1" id="W2Uw6JWR4Iz0eQvfbO3c">
    <mxGraphModel dx="794" dy="470" grid="1" gridSize="10" guides="1" tooltips="1" connect="1" arrows="1" fold="1" page="1" pageScale="1" pageWidth="827" pageHeight="1169" math="0" shadow="0">
      <root>
        <mxCell id="0" />
        <mxCell id="1" parent="0" />
        <mxCell id="blJOc6ZVmE2_h9W8j0Kh-1" style="edgeStyle=orthogonalEdgeStyle;rounded=0;orthogonalLoop=1;jettySize=auto;html=1;exitX=0.5;exitY=0;exitDx=0;exitDy=0;" parent="1" source="blJOc6ZVmE2_h9W8j0Kh-2" edge="1">
          <mxGeometry relative="1" as="geometry">
            <mxPoint x="140" y="30" as="targetPoint" />
          </mxGeometry>
        </mxCell>
        <mxCell id="blJOc6ZVmE2_h9W8j0Kh-2" value="&lt;font style=&quot;font-size: 25px;&quot;&gt;+&lt;/font&gt;" style="ellipse;whiteSpace=wrap;html=1;aspect=fixed;" parent="1" vertex="1">
          <mxGeometry x="110" y="60" width="60" height="60" as="geometry" />
        </mxCell>
        <mxCell id="blJOc6ZVmE2_h9W8j0Kh-3" style="edgeStyle=orthogonalEdgeStyle;rounded=0;orthogonalLoop=1;jettySize=auto;html=1;exitX=0.5;exitY=0;exitDx=0;exitDy=0;entryX=0;entryY=1;entryDx=0;entryDy=0;" parent="1" source="blJOc6ZVmE2_h9W8j0Kh-4" target="blJOc6ZVmE2_h9W8j0Kh-2" edge="1">
          <mxGeometry relative="1" as="geometry" />
        </mxCell>
        <mxCell id="blJOc6ZVmE2_h9W8j0Kh-4" value="" style="rounded=0;whiteSpace=wrap;html=1;" parent="1" vertex="1">
          <mxGeometry x="50" y="160" width="60" height="60" as="geometry" />
        </mxCell>
        <mxCell id="blJOc6ZVmE2_h9W8j0Kh-5" style="edgeStyle=orthogonalEdgeStyle;rounded=0;orthogonalLoop=1;jettySize=auto;html=1;exitX=0.5;exitY=0;exitDx=0;exitDy=0;entryX=1;entryY=1;entryDx=0;entryDy=0;" parent="1" source="blJOc6ZVmE2_h9W8j0Kh-6" target="blJOc6ZVmE2_h9W8j0Kh-2" edge="1">
          <mxGeometry relative="1" as="geometry" />
        </mxCell>
        <mxCell id="blJOc6ZVmE2_h9W8j0Kh-6" value="" style="rounded=0;whiteSpace=wrap;html=1;" parent="1" vertex="1">
          <mxGeometry x="170" y="160" width="60" height="60" as="geometry" />
        </mxCell>
        <mxCell id="blJOc6ZVmE2_h9W8j0Kh-7" style="edgeStyle=orthogonalEdgeStyle;rounded=0;orthogonalLoop=1;jettySize=auto;html=1;exitX=0.5;exitY=0;exitDx=0;exitDy=0;" parent="1" source="blJOc6ZVmE2_h9W8j0Kh-8" target="blJOc6ZVmE2_h9W8j0Kh-4" edge="1">
          <mxGeometry relative="1" as="geometry" />
        </mxCell>
        <mxCell id="blJOc6ZVmE2_h9W8j0Kh-8" value="a" style="text;html=1;align=center;verticalAlign=middle;whiteSpace=wrap;rounded=0;" parent="1" vertex="1">
          <mxGeometry x="50" y="270" width="60" height="30" as="geometry" />
        </mxCell>
        <mxCell id="blJOc6ZVmE2_h9W8j0Kh-9" style="edgeStyle=orthogonalEdgeStyle;rounded=0;orthogonalLoop=1;jettySize=auto;html=1;exitX=0.5;exitY=0;exitDx=0;exitDy=0;entryX=0.5;entryY=1;entryDx=0;entryDy=0;" parent="1" source="blJOc6ZVmE2_h9W8j0Kh-10" target="blJOc6ZVmE2_h9W8j0Kh-6" edge="1">
          <mxGeometry relative="1" as="geometry" />
        </mxCell>
        <mxCell id="blJOc6ZVmE2_h9W8j0Kh-10" value="b" style="text;html=1;align=center;verticalAlign=middle;whiteSpace=wrap;rounded=0;" parent="1" vertex="1">
          <mxGeometry x="170" y="270" width="60" height="30" as="geometry" />
        </mxCell>
        <mxCell id="blJOc6ZVmE2_h9W8j0Kh-11" value="" style="endArrow=none;html=1;rounded=0;exitX=0;exitY=0;exitDx=0;exitDy=0;entryX=1;entryY=1;entryDx=0;entryDy=0;curved=1;" parent="1" source="blJOc6ZVmE2_h9W8j0Kh-4" target="blJOc6ZVmE2_h9W8j0Kh-4" edge="1">
          <mxGeometry width="50" height="50" relative="1" as="geometry">
            <mxPoint x="220" y="230" as="sourcePoint" />
            <mxPoint x="270" y="180" as="targetPoint" />
            <Array as="points">
              <mxPoint x="70" y="210" />
            </Array>
          </mxGeometry>
        </mxCell>
        <mxCell id="blJOc6ZVmE2_h9W8j0Kh-12" value="" style="endArrow=none;html=1;rounded=0;exitX=0;exitY=0;exitDx=0;exitDy=0;entryX=1;entryY=0;entryDx=0;entryDy=0;curved=1;" parent="1" source="blJOc6ZVmE2_h9W8j0Kh-6" target="blJOc6ZVmE2_h9W8j0Kh-6" edge="1">
          <mxGeometry width="50" height="50" relative="1" as="geometry">
            <mxPoint x="220" y="230" as="sourcePoint" />
            <mxPoint x="270" y="180" as="targetPoint" />
            <Array as="points">
              <mxPoint x="200" y="280" />
            </Array>
          </mxGeometry>
        </mxCell>
        <mxCell id="xRAIHe_LRGJNetKWOni5-21" style="edgeStyle=orthogonalEdgeStyle;rounded=0;orthogonalLoop=1;jettySize=auto;html=1;exitX=1;exitY=0.5;exitDx=0;exitDy=0;entryX=0;entryY=0.5;entryDx=0;entryDy=0;" edge="1" parent="1" source="xRAIHe_LRGJNetKWOni5-1" target="xRAIHe_LRGJNetKWOni5-19">
          <mxGeometry relative="1" as="geometry" />
        </mxCell>
        <mxCell id="xRAIHe_LRGJNetKWOni5-1" value="&lt;font style=&quot;font-size: 25px;&quot;&gt;+&lt;/font&gt;" style="ellipse;whiteSpace=wrap;html=1;aspect=fixed;" vertex="1" parent="1">
          <mxGeometry x="470" y="150" width="80" height="80" as="geometry" />
        </mxCell>
        <mxCell id="xRAIHe_LRGJNetKWOni5-2" value="a" style="text;html=1;align=center;verticalAlign=middle;whiteSpace=wrap;rounded=0;" vertex="1" parent="1">
          <mxGeometry x="340" y="120" width="20" height="30" as="geometry" />
        </mxCell>
        <mxCell id="xRAIHe_LRGJNetKWOni5-7" style="edgeStyle=orthogonalEdgeStyle;rounded=0;orthogonalLoop=1;jettySize=auto;html=1;exitX=1;exitY=0.5;exitDx=0;exitDy=0;entryX=0;entryY=0;entryDx=0;entryDy=0;" edge="1" parent="1" source="xRAIHe_LRGJNetKWOni5-11" target="xRAIHe_LRGJNetKWOni5-1">
          <mxGeometry relative="1" as="geometry" />
        </mxCell>
        <mxCell id="xRAIHe_LRGJNetKWOni5-10" style="edgeStyle=orthogonalEdgeStyle;rounded=0;orthogonalLoop=1;jettySize=auto;html=1;exitX=0.5;exitY=0;exitDx=0;exitDy=0;entryX=0.5;entryY=1;entryDx=0;entryDy=0;" edge="1" parent="1" source="xRAIHe_LRGJNetKWOni5-9" target="xRAIHe_LRGJNetKWOni5-1">
          <mxGeometry relative="1" as="geometry" />
        </mxCell>
        <mxCell id="xRAIHe_LRGJNetKWOni5-9" value="staÅ‚a (modyfikowana w trakcie uczenia)" style="text;html=1;align=center;verticalAlign=middle;whiteSpace=wrap;rounded=0;" vertex="1" parent="1">
          <mxGeometry x="450" y="260" width="120" height="30" as="geometry" />
        </mxCell>
        <mxCell id="xRAIHe_LRGJNetKWOni5-12" value="" style="edgeStyle=orthogonalEdgeStyle;rounded=0;orthogonalLoop=1;jettySize=auto;html=1;exitX=1;exitY=0.5;exitDx=0;exitDy=0;entryX=0;entryY=0.5;entryDx=0;entryDy=0;" edge="1" parent="1" source="xRAIHe_LRGJNetKWOni5-2" target="xRAIHe_LRGJNetKWOni5-11">
          <mxGeometry relative="1" as="geometry">
            <mxPoint x="400" y="145" as="sourcePoint" />
            <mxPoint x="482" y="162" as="targetPoint" />
          </mxGeometry>
        </mxCell>
        <mxCell id="xRAIHe_LRGJNetKWOni5-11" value="* W&lt;sub&gt;1&lt;/sub&gt;" style="ellipse;whiteSpace=wrap;html=1;aspect=fixed;" vertex="1" parent="1">
          <mxGeometry x="400" y="110" width="50" height="50" as="geometry" />
        </mxCell>
        <mxCell id="xRAIHe_LRGJNetKWOni5-13" value="b" style="text;html=1;align=center;verticalAlign=middle;whiteSpace=wrap;rounded=0;" vertex="1" parent="1">
          <mxGeometry x="340" y="220" width="20" height="30" as="geometry" />
        </mxCell>
        <mxCell id="xRAIHe_LRGJNetKWOni5-14" value="" style="edgeStyle=orthogonalEdgeStyle;rounded=0;orthogonalLoop=1;jettySize=auto;html=1;exitX=1;exitY=0.5;exitDx=0;exitDy=0;entryX=0;entryY=0.5;entryDx=0;entryDy=0;" edge="1" parent="1" source="xRAIHe_LRGJNetKWOni5-13" target="xRAIHe_LRGJNetKWOni5-15">
          <mxGeometry relative="1" as="geometry">
            <mxPoint x="400" y="245" as="sourcePoint" />
            <mxPoint x="482" y="262" as="targetPoint" />
          </mxGeometry>
        </mxCell>
        <mxCell id="xRAIHe_LRGJNetKWOni5-16" style="edgeStyle=orthogonalEdgeStyle;rounded=0;orthogonalLoop=1;jettySize=auto;html=1;exitX=1;exitY=0.5;exitDx=0;exitDy=0;entryX=0;entryY=1;entryDx=0;entryDy=0;" edge="1" parent="1" source="xRAIHe_LRGJNetKWOni5-15" target="xRAIHe_LRGJNetKWOni5-1">
          <mxGeometry relative="1" as="geometry">
            <Array as="points">
              <mxPoint x="460" y="235" />
              <mxPoint x="460" y="218" />
            </Array>
          </mxGeometry>
        </mxCell>
        <mxCell id="xRAIHe_LRGJNetKWOni5-15" value="* W&lt;sub&gt;2&lt;/sub&gt;" style="ellipse;whiteSpace=wrap;html=1;aspect=fixed;" vertex="1" parent="1">
          <mxGeometry x="400" y="210" width="50" height="50" as="geometry" />
        </mxCell>
        <mxCell id="xRAIHe_LRGJNetKWOni5-22" style="edgeStyle=orthogonalEdgeStyle;rounded=0;orthogonalLoop=1;jettySize=auto;html=1;exitX=1;exitY=0.5;exitDx=0;exitDy=0;" edge="1" parent="1" source="xRAIHe_LRGJNetKWOni5-19">
          <mxGeometry relative="1" as="geometry">
            <mxPoint x="770" y="190" as="targetPoint" />
          </mxGeometry>
        </mxCell>
        <mxCell id="xRAIHe_LRGJNetKWOni5-19" value="" style="whiteSpace=wrap;html=1;aspect=fixed;" vertex="1" parent="1">
          <mxGeometry x="620" y="150" width="80" height="80" as="geometry" />
        </mxCell>
        <mxCell id="xRAIHe_LRGJNetKWOni5-20" value="" style="endArrow=none;html=1;rounded=1;exitX=0;exitY=0.75;exitDx=0;exitDy=0;entryX=1;entryY=0;entryDx=0;entryDy=0;curved=0;" edge="1" parent="1" source="xRAIHe_LRGJNetKWOni5-19" target="xRAIHe_LRGJNetKWOni5-19">
          <mxGeometry width="50" height="50" relative="1" as="geometry">
            <mxPoint x="380" y="270" as="sourcePoint" />
            <mxPoint x="430" y="220" as="targetPoint" />
            <Array as="points">
              <mxPoint x="660" y="200" />
            </Array>
          </mxGeometry>
        </mxCell>
      </root>
    </mxGraphModel>
  </diagram>
</mxfile>
